name analog
datacolumns 19
datarows 47
range 0.289 0.312
endheader
time	ground_force_vx	ground_force_vy	ground_force_vz	ground_force_px	ground_force_py	ground_force_pz	l_ground_force_vx	l_ground_force_vy	l_ground_force_vz	l_ground_force_px	l_ground_force_py	l_ground_force_pz	ground_torque_x	ground_torque_y	ground_torque_z	l_ground_torque_x	l_ground_torque_y	l_ground_torque_z
0.289	-0.0	-0.0	-0.0	-0.0	-0.0	-0.0	8.667017936706543	3.2914209365844727	-909.5983276367188	-0.0	-0.0	-0.0	-0.0	-0.0	-0.0	248462.71875	7956.60205078125	129.60569763183594
0.2895	-0.0	-0.0	-0.0	-0.0	-0.0	-0.0	6.425551414489746	2.055216073989868	-907.5960693359376	-0.0	-0.0	-0.0	-0.0	-0.0	-0.0	247785.734375	8439.0859375	-232.22042846679688
0.29	-0.0	-0.0	-0.0	-0.0	-0.0	-0.0	3.661296844482422	0.9595142006874084	-908.2859497070312	-0.0	-0.0	-0.0	-0.0	-0.0	-0.0	247761.125	8860.2119140625	-730.67626953125
0.2905	-0.0	-0.0	-0.0	-0.0	-0.0	-0.0	1.4958560466766355	1.3507256507873535	-912.387451171875	-0.0	-0.0	-0.0	-0.0	-0.0	-0.0	249110.578125	9156.638671875	-1291.023193359375
0.291	-0.0	-0.0	-0.0	-0.0	-0.0	-0.0	0.6468662619590759	3.091259002685547	-918.8701782226562	-0.0	-0.0	-0.0	-0.0	-0.0	-0.0	251141.484375	9111.3408203125	-1481.9566650390625
0.2915	-0.0	-0.0	-0.0	-0.0	-0.0	-0.0	0.8995013236999512	5.211953639984131	-923.0067138671876	-0.0	-0.0	-0.0	-0.0	-0.0	-0.0	252714.921875	9217.6826171875	-1498.142578125
0.292	-0.0	-0.0	-0.0	-0.0	-0.0	-0.0	1.0009055137634275	7.217401504516602	-927.3466796875	-0.0	-0.0	-0.0	-0.0	-0.0	-0.0	254473.484375	9291.1357421875	-1573.9951171875
0.2925	-0.0	-0.0	-0.0	-0.0	-0.0	-0.0	0.6716141700744629	8.352701187133789	-930.339599609375	-0.0	-0.0	-0.0	-0.0	-0.0	-0.0	255205.1875	9514.5263671875	-1548.4129638671875
0.293	-0.0	-0.0	-0.0	-0.0	-0.0	-0.0	0.545006275177002	8.44106388092041	-934.3297119140624	-0.0	-0.0	-0.0	-0.0	-0.0	-0.0	256155.546875	9566.6572265625	-1421.261962890625
0.2935	-0.0	-0.0	-0.0	-0.0	-0.0	-0.0	0.5830658674240112	8.163338661193848	-936.526123046875	-0.0	-0.0	-0.0	-0.0	-0.0	-0.0	257153.4375	9852.1298828125	-1408.453369140625
0.294	-0.0	-0.0	-0.0	-0.0	-0.0	-0.0	0.1774215698242187	7.280080795288086	-936.671630859375	-0.0	-0.0	-0.0	-0.0	-0.0	-0.0	257070.3125	10610.888671875	-1409.235595703125
0.2945	-0.0	-0.0	-0.0	-0.0	-0.0	-0.0	-0.8739844560623169	6.787703990936279	-936.825439453125	-0.0	-0.0	-0.0	-0.0	-0.0	-0.0	256917.96875	11092.615234375	-1562.8421630859375
0.295	-0.0	-0.0	-0.0	-0.0	-0.0	-0.0	-1.647769331932068	6.674878120422363	-933.7799682617188	-0.0	-0.0	-0.0	-0.0	-0.0	-0.0	256111.484375	11614.67578125	-1664.4266357421875
0.2955	-0.0	-0.0	-0.0	-0.0	-0.0	-0.0	-2.610306978225708	6.359161376953125	-930.7423095703124	-0.0	-0.0	-0.0	-0.0	-0.0	-0.0	255636.59375	12207.8740234375	-2017.39599609375
0.296	-0.0	-0.0	-0.0	-0.0	-0.0	-0.0	-3.196385145187378	6.586672306060791	-929.1034545898438	-0.0	-0.0	-0.0	-0.0	-0.0	-0.0	255208.828125	12432.26171875	-2170.580078125
0.2965	-0.0	-0.0	-0.0	-0.0	-0.0	-0.0	-3.357422113418579	6.233442783355713	-927.0636596679688	-0.0	-0.0	-0.0	-0.0	-0.0	-0.0	254660.90625	12903.78515625	-2077.287109375
0.297	-0.0	-0.0	-0.0	-0.0	-0.0	-0.0	-3.558612108230591	6.107806205749512	-926.3530883789062	-0.0	-0.0	-0.0	-0.0	-0.0	-0.0	254723.265625	13411.453125	-2153.90771484375
0.2975	-0.0	-0.0	-0.0	-0.0	-0.0	-0.0	-4.057070255279541	4.946014404296875	-925.6553344726562	-0.0	-0.0	-0.0	-0.0	-0.0	-0.0	254721.03125	13372.2646484375	-2157.861572265625
0.298	-0.0	-0.0	-0.0	-0.0	-0.0	-0.0	-4.407668113708496	4.504405975341797	-926.99755859375	-0.0	-0.0	-0.0	-0.0	-0.0	-0.0	254906.328125	13754.0322265625	-2303.28369140625
0.2985	-0.0	-0.0	-0.0	-0.0	-0.0	-0.0	-5.313505172729492	4.188268184661865	-926.9615478515624	-0.0	-0.0	-0.0	-0.0	-0.0	-0.0	254972.515625	13930.677734375	-2503.91455078125
0.299	-0.0	-0.0	-0.0	-0.0	-0.0	-0.0	-5.952645301818848	4.16519021987915	-929.2747192382812	-0.0	-0.0	-0.0	-0.0	-0.0	-0.0	255997.296875	14318.4072265625	-2601.141845703125
0.2995	-0.0	-0.0	-0.0	-0.0	-0.0	-0.0	-7.3344950675964355	4.211065769195557	-932.8987426757812	-0.0	-0.0	-0.0	-0.0	-0.0	-0.0	256851.84375	14490.7900390625	-2911.222412109375
0.3	-0.0	-0.0	-0.0	-0.0	-0.0	-0.0	-7.7034382820129395	4.48175048828125	-936.7171020507812	-0.0	-0.0	-0.0	-0.0	-0.0	-0.0	257995.875	14480.802734375	-3081.791259765625
0.3005	-0.0	-0.0	-0.0	-0.0	-0.0	-0.0	-7.740420341491699	4.8865966796875	-942.0999145507812	-0.0	-0.0	-0.0	-0.0	-0.0	-0.0	259517.125	14378.6640625	-3052.10888671875
0.301	-0.0	-0.0	-0.0	-0.0	-0.0	-0.0	-7.185573577880859	5.233339309692383	-948.0350341796876	-0.0	-0.0	-0.0	-0.0	-0.0	-0.0	261180.171875	13921.1484375	-2878.564697265625
0.3015	-0.0	-0.0	-0.0	-0.0	-0.0	-0.0	-5.551797866821289	6.160382270812988	-954.31884765625	-0.0	-0.0	-0.0	-0.0	-0.0	-0.0	263207.40625	13465.2841796875	-2541.124755859375
0.302	-0.0	-0.0	-0.0	-0.0	-0.0	-0.0	-4.295041084289551	6.918688774108887	-961.97119140625	-0.0	-0.0	-0.0	-0.0	-0.0	-0.0	265024.625	13284.576171875	-2213.753173828125
0.3025	-0.0	-0.0	-0.0	-0.0	-0.0	-0.0	-4.420525550842285	7.927212715148926	-966.0702514648438	-0.0	-0.0	-0.0	-0.0	-0.0	-0.0	266589.3125	13075.37890625	-2213.611572265625
0.303	-0.0	-0.0	-0.0	-0.0	-0.0	-0.0	-5.233936309814453	8.140624046325684	-971.0239868164062	-0.0	-0.0	-0.0	-0.0	-0.0	-0.0	267878.9375	13123.9462890625	-2463.77001953125
0.3035	-0.0	-0.0	-0.0	-0.0	-0.0	-0.0	-5.610368728637695	8.552092552185059	-973.4346923828124	-0.0	-0.0	-0.0	-0.0	-0.0	-0.0	268303.78125	12803.0380859375	-2636.84228515625
0.304	-0.0	-0.0	-0.0	-0.0	-0.0	-0.0	-5.233936309814453	8.44836139678955	-973.3743896484376	-0.0	-0.0	-0.0	-0.0	-0.0	-0.0	268172.84375	12882.107421875	-2500.5
0.3045	-0.0	-0.0	-0.0	-0.0	-0.0	-0.0	-5.123983860015869	8.192768096923828	-971.42333984375	-0.0	-0.0	-0.0	-0.0	-0.0	-0.0	267700.625	12518.5029296875	-2386.94189453125
0.305	-0.0	-0.0	-0.0	-0.0	-0.0	-0.0	-4.362354278564453	7.081192493438721	-968.7298583984376	-0.0	-0.0	-0.0	-0.0	-0.0	-0.0	266583.34375	12720.5595703125	-2137.11474609375
0.3055	-0.0	-0.0	-0.0	-0.0	-0.0	-0.0	-4.59728479385376	6.0578389167785645	-964.5005493164062	-0.0	-0.0	-0.0	-0.0	-0.0	-0.0	265328.3125	12754.4365234375	-2148.025390625
0.306	-0.0	-0.0	-0.0	-0.0	-0.0	-0.0	-5.374881744384766	4.1304931640625	-961.0903930664062	-0.0	-0.0	-0.0	-0.0	-0.0	-0.0	263766.71875	12655.6240234375	-2039.052978515625
0.3065	-0.0	-0.0	-0.0	-0.0	-0.0	-0.0	-5.286246299743652	2.484283208847046	-959.8177490234376	-0.0	-0.0	-0.0	-0.0	-0.0	-0.0	262846.65625	12841.8505859375	-1960.9552001953125
0.307	-0.0	-0.0	-0.0	-0.0	-0.0	-0.0	-3.991985321044922	1.6419116258621216	-960.4531860351562	-0.0	-0.0	-0.0	-0.0	-0.0	-0.0	262614.375	12400.54296875	-1544.9521484375
0.3075	-0.0	-0.0	-0.0	-0.0	-0.0	-0.0	-3.120985269546509	0.9835079908370972	-962.6109619140624	-0.0	-0.0	-0.0	-0.0	-0.0	-0.0	263129.4375	12290.7724609375	-1199.303955078125
0.308	-0.0	-0.0	-0.0	-0.0	-0.0	-0.0	-2.87126088142395	0.939165472984314	-964.435302734375	-0.0	-0.0	-0.0	-0.0	-0.0	-0.0	263514.28125	12164.6982421875	-1075.1453857421875
0.3085	-0.0	-0.0	-0.0	-0.0	-0.0	-0.0	-2.6053621768951416	0.899519681930542	-968.1973876953124	-0.0	-0.0	-0.0	-0.0	-0.0	-0.0	264365.1875	12109.052734375	-872.8326416015625
0.309	-0.0	-0.0	-0.0	-0.0	-0.0	-0.0	-1.8103429079055784	0.902801513671875	-969.6588134765624	-0.0	-0.0	-0.0	-0.0	-0.0	-0.0	265023.78125	12174.94140625	-772.3231811523438
0.3095	-0.0	-0.0	-0.0	-0.0	-0.0	-0.0	-1.22250497341156	1.415974259376526	-972.5291137695312	-0.0	-0.0	-0.0	-0.0	-0.0	-0.0	265476.28125	11779.337890625	-819.04736328125
0.31	-0.0	-0.0	-0.0	-0.0	-0.0	-0.0	-0.8678361773490906	2.172205924987793	-975.8029174804688	-0.0	-0.0	-0.0	-0.0	-0.0	-0.0	266214.4375	11857.9150390625	-841.8422241210938
0.3105	-0.0	-0.0	-0.0	-0.0	-0.0	-0.0	-0.7983970642089844	2.88101863861084	-977.341796875	-0.0	-0.0	-0.0	-0.0	-0.0	-0.0	266916.625	11849.60546875	-1050.8155517578125
0.311	-0.0	-0.0	-0.0	-0.0	-0.0	-0.0	-1.668550968170166	3.3919451236724854	-979.0211181640624	-0.0	-0.0	-0.0	-0.0	-0.0	-0.0	267376.75	11663.390625	-1484.18603515625
0.3115	-0.0	-0.0	-0.0	-0.0	-0.0	-0.0	-3.121913433074951	3.3579819202423096	-981.4652099609376	-0.0	-0.0	-0.0	-0.0	-0.0	-0.0	267655.75	11409.0771484375	-1869.6114501953125
0.312	-0.0	-0.0	-0.0	-0.0	-0.0	-0.0	-3.422567367553711	3.1795806884765625	-983.6277465820312	-0.0	-0.0	-0.0	-0.0	-0.0	-0.0	268012.4375	11451.07421875	-1978.088623046875
